<svg width="32" height="32" viewBox="0 0 32 32" fill="none" xmlns="http://www.w3.org/2000/svg">
<path d="M16 16C19.6819 16 22.6666 13.0152 22.6666 9.33332C22.6666 5.65142 19.6819 2.66666 16 2.66666C12.3181 2.66666 9.33331 5.65142 9.33331 9.33332C9.33331 13.0152 12.3181 16 16 16Z" stroke="white" stroke-width="2"/>
<path d="M22.6666 18.6667H23.136C24.1108 18.6669 25.0519 19.0231 25.7825 19.6684C26.5132 20.3136 26.9831 21.2034 27.104 22.1707L27.6253 26.336C27.6722 26.7112 27.6388 27.0922 27.5272 27.4535C27.4156 27.8148 27.2284 28.1483 26.9781 28.4317C26.7278 28.7152 26.4201 28.9422 26.0754 29.0976C25.7307 29.2531 25.3568 29.3334 24.9786 29.3333H7.02131C6.64316 29.3334 6.26931 29.2531 5.92457 29.0976C5.57984 28.9422 5.27211 28.7152 5.02181 28.4317C4.77151 28.1483 4.58436 27.8148 4.47278 27.4535C4.36121 27.0922 4.32775 26.7112 4.37465 26.336L4.89465 22.1707C5.01557 21.203 5.48587 20.3128 6.21709 19.6675C6.94831 19.0222 7.89008 18.6663 8.86531 18.6667H9.33331" stroke="white" stroke-width="2" stroke-linecap="round" stroke-linejoin="round"/>
</svg>
